<svg width="366" height="151" viewBox="0 0 366 151" fill="none" xmlns="http://www.w3.org/2000/svg">
<path d="M71.2586 135.101C75.3786 134.414 79.3019 137.283 80.0055 141.492C80.7091 145.7 77.9309 149.681 73.8109 150.368C69.6908 151.055 65.7635 148.192 65.0599 143.984C64.3563 139.775 67.1385 135.788 71.2586 135.101ZM126.778 125.843C130.898 125.156 134.826 128.024 135.53 132.232C136.233 136.441 133.45 140.423 129.33 141.11C125.21 141.797 121.288 138.933 120.584 134.725C119.88 130.516 122.658 126.53 126.778 125.843ZM34.8784 55.3733L45.4505 55.4806C47.1573 55.4965 48.6506 56.6929 49.0753 58.3836L63.4935 115.414C64.1839 118.148 66.7589 119.869 69.4875 119.414L123.324 110.436C125.89 110.008 127.774 107.684 127.71 105.031L126.866 71.1911C126.838 69.9938 126.178 69.2594 125.788 68.9256C125.398 68.5968 124.57 68.0718 123.41 68.2652L124.938 68.4187C122.895 68.7594 123.381 62.683 123.032 60.5963C123.032 60.5963 120.103 61.0454 122.146 60.7047C125.141 60.2053 128.211 61.0611 130.556 63.048C132.902 65.0348 134.297 67.947 134.375 71.0529L135.214 104.894C135.377 111.327 130.81 116.959 124.588 117.996L70.7514 126.974C64.1446 128.076 57.8989 123.905 56.2222 117.274L42.532 63.1117L34.8615 63.0386C32.7885 63.0164 31.1145 61.2854 31.1161 59.1714C31.1169 57.0523 32.7849 55.3805 34.8784 55.3733Z" fill="#3C6D92"/>
<path d="M76.4176 87.3118C78.1127 83.2096 79.8284 79.4094 81.5649 75.9112C83.3326 72.3657 85.0706 69.2755 86.7789 66.6403C88.4871 64.0052 90.1189 61.896 91.6741 60.3128C93.2293 58.7296 94.6731 57.8019 96.0056 57.5298C96.5151 57.4257 97.1037 57.5096 97.7714 57.7815C98.4784 58.0454 99.1504 58.4389 99.7877 58.9619C100.464 59.477 101.055 60.0708 101.559 60.7435C102.056 61.377 102.372 62.0268 102.507 62.6932C100.237 63.9733 98.0583 65.5002 95.9704 67.2739C93.9137 69.0003 91.9794 70.9264 90.1673 73.052C88.3864 75.1304 86.7238 77.3887 85.1796 79.8271C83.6745 82.2574 82.3738 84.7889 81.2773 87.4215C82.2318 88.9004 83.3475 90.4689 84.6242 92.127C85.9322 93.7378 87.3106 95.2935 88.7593 96.7939C90.2001 98.2552 91.6953 99.5828 93.2449 100.777C94.7945 101.971 96.3038 102.867 97.7728 103.465C97.6647 103.936 97.4155 104.416 97.025 104.904C96.6346 105.392 96.197 105.849 95.7122 106.274C95.2354 106.739 94.7035 107.134 94.1163 107.458C93.5684 107.774 93.0397 107.984 92.5302 108.088C91.5112 108.296 90.4708 107.998 89.409 107.194C88.3551 106.43 87.1818 105.179 85.8891 103.443C84.6275 101.659 83.2154 99.4367 81.6526 96.7756C80.121 94.0673 78.376 90.9127 76.4176 87.3118ZM72.3088 112.524C70.7476 112.475 69.3853 112.1 68.2219 111.399C67.0664 110.737 65.9414 109.823 64.8468 108.659C65.0478 107.842 65.2596 106.778 65.4824 105.467C65.7443 104.148 66.0482 102.535 66.3943 100.627C66.7323 98.6797 67.1397 96.3715 67.6163 93.7022C68.0849 90.9936 68.6265 87.8415 69.2409 84.2458C69.6326 81.9612 69.9355 80.0418 70.1495 78.4875C70.4027 76.9253 70.5658 75.4222 70.639 73.9784C70.7434 72.4873 70.8003 70.8631 70.8096 69.1057C70.8189 67.3483 70.7951 65.1282 70.7383 62.4453C72.4482 62.4226 74.0852 62.8436 75.6493 63.7081C77.2526 64.5646 78.7079 65.6963 80.0151 67.1032C79.6958 67.7399 79.358 68.6867 79.0018 69.9434C78.6767 71.1529 78.3212 72.6136 77.9352 74.3254C77.5493 76.0373 77.1208 77.9415 76.65 80.0381C76.1791 82.1348 75.693 84.357 75.1917 86.7048C74.0338 91.8404 73.2467 96.4919 72.8304 100.66C72.4061 104.788 72.2323 108.743 72.3088 112.524ZM117.373 97.0126C116.5 96.5376 115.831 95.8578 115.365 94.9731C114.938 94.0805 114.657 93.301 114.521 92.6347C114.354 91.8116 114.308 91.0861 114.384 90.4582C114.227 90.4902 113.938 90.8758 113.518 91.6149C113.097 92.3541 112.641 93.2229 112.15 94.2212C111.699 95.2116 111.244 96.1823 110.784 97.1335C110.325 98.0846 109.979 98.7882 109.745 99.2442C109.347 99.897 108.945 100.428 108.539 100.838C108.172 101.239 107.855 101.488 107.588 101.583C106.953 101.672 106.259 101.671 105.506 101.58C104.8 101.52 104.093 101.358 103.386 101.094C102.718 100.822 102.094 100.46 101.511 100.007C100.968 99.5465 100.547 98.9794 100.246 98.3059C100.023 97.2085 99.8585 96.303 99.754 95.5895C99.6886 94.868 99.67 94.0757 99.6983 93.2125C99.7475 91.6511 99.9136 89.8617 100.196 87.8443C100.519 85.8189 100.947 83.8126 101.481 81.8256C102.007 79.7994 102.659 77.8903 103.436 76.0984C104.246 74.2593 105.185 72.7609 106.256 71.6033C106.608 71.5313 107.028 71.4864 107.514 71.4688C107.992 71.4119 108.483 71.4139 108.985 71.4746C109.526 71.5273 110.037 71.6272 110.516 71.7744C111.026 71.8743 111.474 72.0686 111.859 72.3573C111.586 72.8213 110.952 74.3184 109.958 76.8487C109.002 79.3709 108.07 82.909 107.161 87.463C107.052 87.9342 106.945 88.6093 106.838 89.4884C106.732 90.3676 106.633 91.2859 106.543 92.2434C106.452 93.2009 106.396 94.1308 106.376 95.0331C106.395 95.9274 106.457 96.6293 106.56 97.1388C106.624 97.4524 106.711 97.6795 106.822 97.8203C106.971 97.9531 107.093 98.0507 107.188 98.113C107.727 97.7578 108.34 96.959 109.026 95.7167C109.712 94.4743 110.634 92.5916 111.794 90.0685C112.074 89.4398 112.397 88.7206 112.763 87.9111C113.168 87.0935 113.565 86.2367 113.954 85.3408C114.335 84.4056 114.672 83.4589 114.967 82.5006C115.301 81.5342 115.536 80.5879 115.674 79.6616C115.735 79.1593 115.819 78.5705 115.927 77.8954C116.065 77.173 116.239 76.4231 116.448 75.6456C116.696 74.86 116.984 74.0665 117.31 73.2649C117.668 72.4162 118.116 71.6102 118.654 70.847C119.164 70.743 119.725 70.6897 120.336 70.6872C120.948 70.6847 121.529 70.7295 122.078 70.8214C122.659 70.8661 123.169 70.966 123.609 71.1211C124.041 71.2371 124.379 71.3926 124.622 71.5878C124.268 73.4564 123.832 75.3214 123.313 77.1829C122.794 79.0444 122.33 80.8742 121.921 82.6725C121.504 84.4315 121.204 86.1666 121.022 87.8776C120.84 89.5886 120.905 91.2084 121.217 92.737C121.384 93.5601 121.591 94.2732 121.836 94.8763C122.113 95.4322 122.373 95.9097 122.618 96.3089C122.855 96.6688 123.06 96.9739 123.233 97.2243C123.446 97.4666 123.572 97.6858 123.612 97.8817C123.62 97.9209 123.593 97.9877 123.53 98.0821C123.499 98.1293 123.464 98.1569 123.425 98.1649C123.15 98.221 122.786 98.2342 122.331 98.2047C121.876 98.1751 121.35 98.0988 120.753 97.9757C120.204 97.8838 119.627 97.7567 119.022 97.5944C118.457 97.4241 117.907 97.2302 117.373 97.0126Z" fill="white"/>
<path d="M185.663 74.4757C185.663 76.6757 185.103 78.7757 183.983 80.7757C182.903 82.7757 181.423 84.5357 179.543 86.0557C177.703 87.5357 175.523 88.7157 173.003 89.5957C170.523 90.4757 167.883 90.9157 165.083 90.9157C164.083 90.9157 163.283 90.7957 162.683 90.5557C162.123 90.2757 161.483 89.7557 160.763 88.9957C158.763 93.3557 157.123 97.3757 155.843 101.056C154.603 104.696 153.623 108.236 152.903 111.676C151.383 111.316 150.143 110.676 149.183 109.756C148.223 108.876 147.343 107.756 146.543 106.396C146.943 105.636 147.423 104.636 147.983 103.396C148.543 102.156 149.223 100.636 150.023 98.8357C150.823 96.9957 151.743 94.8157 152.783 92.2957C153.863 89.7357 155.123 86.7557 156.563 83.3557C157.203 81.7957 157.763 80.4357 158.243 79.2757C158.723 78.1157 159.143 77.0357 159.503 76.0357C159.863 74.9957 160.183 73.9757 160.463 72.9757C160.783 71.9757 161.103 70.8757 161.423 69.6757C159.543 70.2757 157.803 70.9757 156.203 71.7757C154.643 72.5757 153.343 73.4157 152.303 74.2957C151.943 74.0557 151.563 73.6957 151.163 73.2157C150.803 72.7357 150.463 72.2157 150.143 71.6557C149.823 71.0557 149.543 70.4557 149.303 69.8557C149.063 69.2557 148.923 68.7157 148.883 68.2357C150.043 67.4357 151.483 66.6957 153.203 66.0157C154.923 65.3357 156.763 64.7557 158.723 64.2757C160.683 63.7557 162.703 63.3557 164.783 63.0757C166.903 62.7957 168.923 62.6557 170.843 62.6557C173.123 62.6557 175.183 62.9557 177.023 63.5557C178.863 64.1157 180.423 64.9157 181.703 65.9557C182.983 66.9957 183.963 68.2357 184.643 69.6757C185.323 71.1157 185.663 72.7157 185.663 74.4757ZM174.983 67.2757C173.463 67.2757 171.903 67.3957 170.303 67.6357L171.023 68.7157C170.623 69.2357 170.123 70.0157 169.523 71.0557C168.923 72.0957 168.263 73.3557 167.543 74.8357C166.823 76.2757 166.023 77.8957 165.143 79.6957C164.303 81.4957 163.403 83.3957 162.443 85.3957C165.563 85.3957 168.403 85.1157 170.963 84.5557C173.523 83.9557 175.703 83.1557 177.503 82.1557C179.343 81.1157 180.763 79.9157 181.763 78.5557C182.803 77.1957 183.323 75.7357 183.323 74.1757C183.323 72.0957 182.623 70.4357 181.223 69.1957C179.823 67.9157 177.743 67.2757 174.983 67.2757ZM202.294 82.5757C202.694 82.5757 203.154 82.6557 203.674 82.8157C204.234 82.9357 204.734 83.1157 205.174 83.3557C205.614 83.5557 205.974 83.7757 206.254 84.0157C206.574 84.2557 206.734 84.4757 206.734 84.6757C205.934 86.3557 205.194 88.0557 204.514 89.7757C203.834 91.4557 203.254 93.0757 202.774 94.6357C202.294 96.1957 201.914 97.6557 201.634 99.0157C201.394 100.376 201.274 101.556 201.274 102.556C201.274 103.676 201.394 104.616 201.634 105.376C201.874 106.096 202.274 106.616 202.834 106.936C202.354 107.256 201.734 107.516 200.974 107.716C200.214 107.916 199.534 108.016 198.934 108.016C196.774 108.016 195.694 106.536 195.694 103.576C195.694 101.296 196.454 98.1757 197.974 94.2157C197.174 96.0557 196.254 97.7957 195.214 99.4357C194.174 101.036 193.114 102.456 192.034 103.696C190.954 104.936 189.854 105.956 188.734 106.756C187.654 107.516 186.654 107.976 185.734 108.136C184.254 108.056 183.054 107.356 182.134 106.036C181.214 104.676 180.754 102.956 180.754 100.876C180.754 98.6357 181.234 96.2757 182.194 93.7957C183.154 91.3157 184.374 89.0157 185.854 86.8957C187.374 84.7757 189.014 83.0157 190.774 81.6157C192.534 80.1757 194.234 79.4157 195.874 79.3357C196.274 79.4557 196.714 79.6957 197.194 80.0557C197.714 80.4157 198.194 80.8357 198.634 81.3157C199.114 81.7957 199.514 82.2957 199.834 82.8157C200.154 83.2957 200.334 83.7157 200.374 84.0757C198.774 84.3157 197.114 85.0957 195.394 86.4157C193.714 87.7357 192.174 89.3357 190.774 91.2157C189.414 93.0557 188.294 95.0357 187.414 97.1557C186.534 99.2757 186.094 101.256 186.094 103.096C186.094 103.856 186.374 104.336 186.934 104.536C188.094 104.296 189.434 103.316 190.954 101.596C192.474 99.8357 194.314 97.1357 196.474 93.4957C196.874 92.7757 197.314 91.9757 197.794 91.0957C198.314 90.2157 198.834 89.2957 199.354 88.3357C199.874 87.3757 200.374 86.4157 200.854 85.4557C201.374 84.4557 201.854 83.4957 202.294 82.5757ZM230.478 82.9357C230.438 83.6957 230.298 84.4957 230.058 85.3357C229.858 86.1357 229.598 86.8757 229.278 87.5557C228.958 88.1957 228.618 88.7357 228.258 89.1757C227.898 89.6157 227.558 89.8357 227.238 89.8357C226.798 89.7957 226.538 89.4957 226.458 88.9357C226.458 88.8157 226.498 88.6357 226.578 88.3957C226.698 88.1157 226.818 87.8157 226.938 87.4957C227.058 87.1757 227.158 86.8557 227.238 86.5357C227.358 86.2157 227.418 85.9357 227.418 85.6957C227.418 85.1357 227.278 84.6757 226.998 84.3157C226.758 83.9157 226.418 83.7157 225.978 83.7157C224.378 83.7157 223.158 84.7157 222.318 86.7157C221.478 88.7157 221.058 91.6557 221.058 95.5357C221.058 95.9357 221.078 96.1757 221.118 96.2557C221.958 96.2157 222.698 96.1957 223.338 96.1957C224.018 96.1557 224.678 96.1357 225.318 96.1357C225.358 96.2157 225.378 96.3757 225.378 96.6157C225.378 96.9757 225.298 97.2357 225.138 97.3957C224.218 97.5957 223.478 97.7757 222.918 97.9357C222.398 98.0557 221.998 98.1757 221.718 98.2957C221.438 98.4157 221.258 98.5557 221.178 98.7157C221.138 98.8357 221.118 99.0157 221.118 99.2557C221.118 99.5757 221.118 99.8957 221.118 100.216C221.158 100.536 221.178 100.936 221.178 101.416C221.178 104.776 220.258 107.476 218.418 109.516C216.618 111.556 214.098 112.736 210.858 113.056C210.298 113.016 209.718 112.856 209.118 112.576C208.518 112.296 207.938 111.936 207.378 111.496C206.858 111.056 206.398 110.556 205.998 109.996C205.598 109.476 205.318 108.936 205.158 108.376C205.158 106.856 205.478 105.416 206.118 104.056C206.758 102.656 207.618 101.436 208.698 100.396C209.818 99.3157 211.118 98.4557 212.598 97.8157C214.118 97.1357 215.758 96.7357 217.518 96.6157C217.518 95.6157 217.418 94.6357 217.218 93.6757C217.018 92.7157 216.798 91.7957 216.558 90.9157C216.358 89.9957 216.158 89.1157 215.958 88.2757C215.758 87.3957 215.658 86.5357 215.658 85.6957C215.658 84.6157 215.878 83.5557 216.318 82.5157C216.758 81.4357 217.338 80.4557 218.058 79.5757C218.778 78.6557 219.618 77.8757 220.578 77.2357C221.538 76.5957 222.538 76.1557 223.578 75.9157C224.018 76.0357 224.598 76.3957 225.318 76.9957C226.078 77.5557 226.818 78.1957 227.538 78.9157C228.258 79.6357 228.898 80.3757 229.458 81.1357C230.018 81.8557 230.358 82.4557 230.478 82.9357ZM210.678 110.296C211.638 109.896 212.538 109.316 213.378 108.556C214.258 107.796 215.018 106.936 215.658 105.976C216.298 105.016 216.798 103.996 217.158 102.916C217.558 101.836 217.758 100.776 217.758 99.7357C216.958 99.8557 216.078 100.236 215.118 100.876C214.158 101.476 213.258 102.216 212.418 103.096C211.578 103.936 210.878 104.816 210.318 105.736C209.758 106.656 209.478 107.456 209.478 108.136C209.478 109.016 209.878 109.736 210.678 110.296ZM251.22 82.5757C251.62 82.5757 252.08 82.6557 252.6 82.8157C253.16 82.9357 253.66 83.1157 254.1 83.3557C254.54 83.5557 254.9 83.7757 255.18 84.0157C255.5 84.2557 255.66 84.4757 255.66 84.6757C254.86 86.3557 254.12 88.0557 253.44 89.7757C252.76 91.4557 252.18 93.0757 251.7 94.6357C251.22 96.1957 250.84 97.6557 250.56 99.0157C250.32 100.376 250.2 101.556 250.2 102.556C250.2 103.676 250.32 104.616 250.56 105.376C250.8 106.096 251.2 106.616 251.76 106.936C251.28 107.256 250.66 107.516 249.9 107.716C249.14 107.916 248.46 108.016 247.86 108.016C245.7 108.016 244.62 106.536 244.62 103.576C244.62 101.296 245.38 98.1757 246.9 94.2157C246.1 96.0557 245.18 97.7957 244.14 99.4357C243.1 101.036 242.04 102.456 240.96 103.696C239.88 104.936 238.78 105.956 237.66 106.756C236.58 107.516 235.58 107.976 234.66 108.136C233.18 108.056 231.98 107.356 231.06 106.036C230.14 104.676 229.68 102.956 229.68 100.876C229.68 98.6357 230.16 96.2757 231.12 93.7957C232.08 91.3157 233.3 89.0157 234.78 86.8957C236.3 84.7757 237.94 83.0157 239.7 81.6157C241.46 80.1757 243.16 79.4157 244.8 79.3357C245.2 79.4557 245.64 79.6957 246.12 80.0557C246.64 80.4157 247.12 80.8357 247.56 81.3157C248.04 81.7957 248.44 82.2957 248.76 82.8157C249.08 83.2957 249.26 83.7157 249.3 84.0757C247.7 84.3157 246.04 85.0957 244.32 86.4157C242.64 87.7357 241.1 89.3357 239.7 91.2157C238.34 93.0557 237.22 95.0357 236.34 97.1557C235.46 99.2757 235.02 101.256 235.02 103.096C235.02 103.856 235.3 104.336 235.86 104.536C237.02 104.296 238.36 103.316 239.88 101.596C241.4 99.8357 243.24 97.1357 245.4 93.4957C245.8 92.7757 246.24 91.9757 246.72 91.0957C247.24 90.2157 247.76 89.2957 248.28 88.3357C248.8 87.3757 249.3 86.4157 249.78 85.4557C250.3 84.4557 250.78 83.4957 251.22 82.5757ZM258.643 102.976C258.643 101.216 259.063 98.7557 259.903 95.5957C260.743 92.3957 261.923 88.6757 263.443 84.4357C265.923 77.6757 268.243 72.0557 270.403 67.5757C272.603 63.0557 274.743 59.5357 276.823 57.0157C277.303 57.0957 277.883 57.2957 278.563 57.6157C279.283 57.9357 279.983 58.2957 280.663 58.6957C281.343 59.0557 281.943 59.4357 282.463 59.8357C283.023 60.2357 283.383 60.5557 283.543 60.7957C280.423 64.4757 277.683 68.4357 275.323 72.6757C272.963 76.9157 270.803 81.7757 268.843 87.2557C267.163 91.9757 265.883 96.2357 265.003 100.036C264.123 103.796 263.683 106.936 263.683 109.456C263.683 110.136 263.683 110.556 263.683 110.716C263.683 110.876 263.703 111.036 263.743 111.196C263.183 111.116 262.703 110.976 262.303 110.776C261.903 110.576 261.643 110.336 261.523 110.056C261.443 109.856 261.223 109.556 260.863 109.156C260.503 108.796 260.183 108.516 259.903 108.316C259.543 108.076 259.243 107.456 259.003 106.456C258.763 105.416 258.643 104.256 258.643 102.976Z" fill="#C4E6DA"/>
<path fill-rule="evenodd" clip-rule="evenodd" d="M291.356 73.64C291.68 74.2851 291.421 75.0717 290.777 75.397L281.055 80.305C280.41 80.6303 279.625 80.3711 279.3 79.726L278.323 77.7857L290.375 71.6934L291.356 73.64ZM289.983 70.9156L277.931 77.0078L273.771 68.7491C273.619 68.447 273.59 68.0976 273.689 67.7743L276.005 60.2659C276.223 59.5571 276.986 59.1719 277.686 59.4174L285.093 62.0177C285.411 62.1297 285.675 62.361 285.827 62.6631L289.983 70.9156ZM279.734 64.1242C279.897 64.4469 279.767 64.8405 279.445 65.0033C279.123 65.166 278.73 65.0363 278.567 64.7135C278.404 64.3908 278.534 63.9972 278.856 63.8344C279.179 63.6717 279.572 63.8014 279.734 64.1242ZM279.837 65.7812C280.588 65.4018 280.89 64.4843 280.511 63.7319C280.132 62.9796 279.216 62.6772 278.465 63.0566C277.713 63.436 277.411 64.3534 277.79 65.1058C278.169 65.8582 279.085 66.1605 279.837 65.7812Z" fill="#F26A83"/>
</svg>
